<svg viewBox="-28 0 511 512" xmlns="http://www.w3.org/2000/svg"><path d="m208.617188 116.84375-9.324219 9.324219c-2.929688 2.929687-2.929688 7.679687 0 10.605469 1.464843 1.464843 3.386719 2.199218 5.304687 2.199218 1.917969 0 3.839844-.734375 5.300782-2.199218l9.328124-9.324219c2.925782-2.929688 2.925782-7.679688 0-10.605469-2.929687-2.929688-7.679687-2.929688-10.609374 0zm0 0"/><path d="m419.859375 106.597656c1.917969 0 3.839844-.730468 5.304687-2.195312l9.324219-9.328125c2.929688-2.925781 2.929688-7.675781 0-10.605469-2.929687-2.929688-7.675781-2.929688-10.605469 0l-9.324218 9.328125c-2.929688 2.925781-2.929688 7.675781 0 10.605469 1.460937 1.464844 3.382812 2.195312 5.300781 2.195312zm0 0"/><path d="m423.878906 442.371094-9.324218 9.328125c-2.929688 2.929687-2.929688 7.675781 0 10.605469 1.464843 1.464843 3.386718 2.195312 5.304687 2.195312s3.839844-.730469 5.304687-2.195312l9.324219-9.324219c2.929688-2.929688 2.929688-7.679688 0-10.609375-2.929687-2.925782-7.675781-2.925782-10.609375 0zm0 0"/><path d="m63.988281 118.929688c1.917969 0 3.839844-.730469 5.304688-2.195313l9.324219-9.328125c2.929687-2.925781 2.929687-7.675781 0-10.605469-2.929688-2.929687-7.679688-2.929687-10.605469 0l-9.324219 9.328125c-2.929688 2.925782-2.929688 7.675782 0 10.605469 1.464844 1.460937 3.382812 2.195313 5.300781 2.195313zm0 0"/><path d="m16.503906 260.214844-9.324218 9.324218c-2.929688 2.929688-2.929688 7.675782 0 10.605469 1.464843 1.464844 3.386718 2.195313 5.304687 2.195313s3.839844-.730469 5.300781-2.195313l9.328125-9.324219c2.925781-2.929687 2.925781-7.679687 0-10.605468-2.929687-2.933594-7.679687-2.929688-10.609375 0zm0 0"/><path d="m142 39.972656c1.917969 0 3.835938-.730468 5.300781-2.195312l9.324219-9.328125c2.929688-2.925781 2.929688-7.675781 0-10.605469-2.925781-2.929688-7.675781-2.929688-10.605469 0l-9.324219 9.328125c-2.929687 2.925781-2.929687 7.675781 0 10.605469 1.464844 1.464844 3.382813 2.195312 5.304688 2.195312zm0 0"/><path d="m271.691406 284.25-4.652344-27.109375c-.058593-.359375.058594-.726563.320313-.980469l19.695313-19.199218c4.421874-4.3125 5.984374-10.640626 4.074218-16.511719-1.90625-5.875-6.890625-10.074219-13-10.964844l-27.222656-3.953125c-.359375-.054688-.671875-.277344-.832031-.605469l-12.171875-24.667969c-2.734375-5.535156-8.269532-8.976562-14.445313-8.976562s-11.710937 3.441406-14.445312 8.976562l-12.171875 24.667969c-.160156.328125-.472656.550781-.832032.605469l-27.222656 3.957031c-6.113281.886719-11.09375 5.085938-13 10.960938-1.910156 5.875-.347656 12.199219 4.074219 16.511719l19.699219 19.199218c.257812.253906.378906.621094.316406.980469l-4.648438 27.109375c-1.046874 6.085938 1.410157 12.125 6.40625 15.753906 4.996094 3.628906 11.496094 4.101563 16.964844 1.226563l24.34375-12.800781c.324219-.167969.710938-.167969 1.03125 0l24.347656 12.800781c2.378907 1.25 4.949219 1.867187 7.511719 1.867187 3.324219 0 6.628907-1.042968 9.449219-3.09375 4.996094-3.628906 7.453125-9.667968 6.410156-15.753906zm-15.226562 3.617188c-.558594.40625-1 .171874-1.164063.085937l-24.347656-12.800781c-2.347656-1.230469-4.921875-1.847656-7.496094-1.847656s-5.148437.617187-7.496093 1.847656l-24.34375 12.800781c-.167969.089844-.613282.320313-1.167969-.082031-.558594-.40625-.472657-.898438-.441407-1.085938l4.652344-27.109375c.894532-5.226562-.835937-10.554687-4.632812-14.253906l-19.699219-19.203125c-.132813-.128906-.492187-.480469-.277344-1.132812.210938-.65625.707031-.726563.894531-.753907l27.21875-3.957031c5.246094-.761719 9.78125-4.054688 12.128907-8.808594l12.171875-24.667968c.082031-.167969.304687-.617188.992187-.617188s.910157.449219.992188.617188l12.175781 24.664062c2.34375 4.757812 6.878906 8.050781 12.128906 8.8125l27.21875 3.957031c.1875.027344.679688.097657.894532.753907.210937.652343-.144532 1.003906-.28125 1.132812l-19.695313 19.199219c-3.796875 3.703125-5.527344 9.035156-4.632813 14.257812l4.648438 27.109375c.03125.1875.117188.679688-.441406 1.082032zm0 0"/><path d="m223.457031 383.148438c-4.140625 0-7.5 3.359374-7.5 7.5v113.851562c0 4.140625 3.359375 7.5 7.5 7.5 4.144531 0 7.5-3.359375 7.5-7.5v-113.851562c0-4.140626-3.355469-7.5-7.5-7.5zm0 0"/><path d="m223.546875 344.75h-.113281c-.011719 0-.023438 0-.035156 0-4.125 0-7.480469 3.339844-7.5 7.46875-.015626 4.140625 3.328124 7.515625 7.46875 7.53125h.117187.03125c4.125 0 7.480469-3.335938 7.5-7.46875.015625-4.140625-3.328125-7.511719-7.46875-7.53125zm0 0"/><path d="m223.515625 319.710938h-.117187c-4.140626 0-7.5 3.355468-7.5 7.5 0 4.140624 3.359374 7.5 7.5 7.5h.117187c4.140625 0 7.5-3.359376 7.5-7.5 0-4.144532-3.359375-7.5-7.5-7.5zm0 0"/><path d="m88.503906 235.132812c1.917969 0 3.839844-.734374 5.304688-2.199218 2.929687-2.925782 2.929687-7.675782 0-10.605469l-80.503906-80.503906c-2.929688-2.929688-7.679688-2.929688-10.609376 0-2.925781 2.929687-2.925781 7.679687 0 10.605469l80.503907 80.503906c1.464843 1.464844 3.386719 2.199218 5.304687 2.199218zm0 0"/><path d="m110.410156 249.425781-.082031.082031c-2.9375 2.917969-2.953125 7.667969-.03125 10.605469 1.464844 1.472657 3.390625 2.210938 5.320313 2.210938 1.910156 0 3.824218-.726563 5.285156-2.179688l.082031-.082031c2.9375-2.917969 2.953125-7.667969.03125-10.605469-2.917969-2.9375-7.667969-2.953125-10.605469-.03125zm0 0"/><path d="m128.117188 267.132812-.082032.078126c-2.9375 2.921874-2.953125 7.671874-.03125 10.605468 1.464844 1.476563 3.390625 2.214844 5.316406 2.214844 1.914063 0 3.824219-.726562 5.289063-2.179688l.082031-.082031c2.9375-2.921875 2.953125-7.667969.03125-10.605469-2.917968-2.9375-7.667968-2.953124-10.605468-.03125zm0 0"/><path d="m353.109375 219.46875c-2.929687 2.929688-2.929687 7.679688 0 10.605469 1.464844 1.464843 3.382813 2.199219 5.300781 2.199219 1.921875 0 3.839844-.734376 5.304688-2.199219l80.503906-80.503907c2.929688-2.929687 2.929688-7.675781 0-10.605468-2.929688-2.929688-7.675781-2.929688-10.605469 0zm0 0"/><path d="m336.488281 246.550781c-2.945312-2.914062-7.695312-2.886719-10.605469.0625-2.910156 2.945313-2.882812 7.695313.0625 10.605469l.082032.082031c1.460937 1.441407 3.367187 2.164063 5.269531 2.164063 1.9375 0 3.871094-.746094 5.335937-2.230469 2.910157-2.945313 2.882813-7.695313-.0625-10.605469zm0 0"/><path d="m318.898438 274.976562c2.925781-2.929687 2.925781-7.679687 0-10.609374l-.082032-.078126c-2.929687-2.929687-7.679687-2.929687-10.609375 0-2.925781 2.929688-2.925781 7.675782 0 10.605469l.082031.082031c1.464844 1.460938 3.386719 2.195313 5.304688 2.195313s3.839844-.734375 5.304688-2.195313zm0 0"/><path d="m301.257812 121.617188c1.191407.699218 2.5 1.035156 3.792969 1.035156 2.570313 0 5.074219-1.324219 6.472657-3.699219l57.699218-98.148437c2.097656-3.570313.90625-8.167969-2.664062-10.265626-3.570313-2.097656-8.167969-.90625-10.269532 2.664063l-57.699218 98.148437c-2.097656 3.570313-.902344 8.164063 2.667968 10.265626zm0 0"/><path d="m281.769531 154.703125.097657.058594c1.1875.691406 2.488281 1.019531 3.773437 1.019531 2.578125 0 5.089844-1.332031 6.484375-3.722656 2.085938-3.578125.878906-8.167969-2.699219-10.253906l-.101562-.058594c-3.578125-2.085938-8.167969-.878906-10.257813 2.699218-2.085937 3.578126-.875 8.167969 2.703125 10.257813zm0 0"/><path d="m276.734375 163.390625-.097656-.058594c-3.578125-2.085937-8.171875-.878906-10.257813 2.699219-2.089844 3.578125-.878906 8.171875 2.699219 10.257812l.097656.058594c1.1875.691406 2.488281 1.023438 3.773438 1.023438 2.578125 0 5.089843-1.335938 6.484375-3.722656 2.089844-3.578126.878906-8.171876-2.699219-10.257813zm0 0"/><path d="m135.535156 118.949219c1.394532 2.378906 3.898438 3.703125 6.46875 3.703125 1.292969 0 2.601563-.335938 3.796875-1.039063 3.570313-2.097656 4.761719-6.691406 2.664063-10.265625l-57.699219-98.144531c-2.097656-3.574219-6.695313-4.765625-10.265625-2.667969-3.570312 2.101563-4.761719 6.695313-2.664062 10.269532zm0 0"/><path d="m157.617188 141.8125c-3.574219 2.09375-4.773438 6.691406-2.675782 10.261719 1.394532 2.382812 3.898438 3.707031 6.476563 3.707031 1.289062 0 2.59375-.332031 3.785156-1.027344l.097656-.058594c3.574219-2.097656 4.773438-6.691406 2.679688-10.265624-2.097657-3.574219-6.691407-4.769532-10.265625-2.675782zm0 0"/><path d="m167.628906 173.660156c1.398438 2.382813 3.902344 3.710938 6.476563 3.710938 1.289062 0 2.59375-.332032 3.789062-1.03125l.097657-.058594c3.574218-2.09375 4.773437-6.691406 2.675781-10.261719-2.09375-3.574219-6.6875-4.773437-10.261719-2.679687l-.097656.058594c-3.574219 2.09375-4.773438 6.691406-2.679688 10.261718zm0 0"/><path d="m453.972656 308.210938c-2.304687-4.671876-6.972656-7.578126-12.183594-7.582032l-18.71875-.011718-10.597656-15.425782c-2.953125-4.292968-7.992187-6.5-13.148437-5.753906s-9.363281 4.289062-10.976563 9.242188l-5.792968 17.800781-17.949219 5.316406c-4.996094 1.476563-8.648438 5.585937-9.535157 10.722656-.882812 5.136719 1.1875 10.230469 5.398438 13.292969l15.136719 11.011719-.488281 18.714843c-.136719 5.207032 2.640624 9.953126 7.253906 12.378907 2.007812 1.058593 4.179687 1.582031 6.339844 1.582031 2.804687 0 5.589843-.878906 7.96875-2.605469l15.152343-10.996093 17.644531 6.25c4.914063 1.742187 10.285157.5625 14.015626-3.074219 3.734374-3.632813 5.054687-8.96875 3.449218-13.925781l-5.773437-17.804688 11.398437-14.851562c3.167969-4.136719 3.710938-9.605469 1.40625-14.28125zm-41.546875 57.257812.007813-.003906s-.003906.003906-.007813.003906zm16.390625-36.671875c-2.722656 3.550781-3.527344 8.210937-2.144531 12.464844l5.121094 15.792969-15.652344-5.542969c-4.222656-1.492188-8.894531-.816407-12.515625 1.8125l-13.4375 9.75.433594-16.597657c.117187-4.472656-1.972656-8.710937-5.589844-11.34375l-13.425781-9.769531 15.921875-4.714843c4.285156-1.269532 7.675781-4.566407 9.0625-8.820313l5.140625-15.785156 9.402343 13.683593c2.53125 3.683594 6.71875 5.886719 11.1875 5.890626l16.605469.011718zm0 0"/><path d="m353.660156 356.230469c-1.828125-3.71875-6.324218-5.25-10.039062-3.417969-.890625.433594-21.976563 10.964844-43.117188 34.945312-19.46875 22.078126-42.671875 60.257813-42.671875 116.742188 0 4.140625 3.355469 7.5 7.5 7.5 4.140625 0 7.5-3.359375 7.5-7.5 0-41.347656 12.953125-77.125 38.503907-106.34375 19.195312-21.953125 38.722656-31.796875 38.917968-31.890625 3.707032-1.832031 5.234375-6.324219 3.40625-10.035156zm0 0"/><path d="m165.492188 378.21875c.585937-5.175781-1.777344-10.140625-6.160157-12.957031l-15.753906-10.109375-.601563-18.707032c-.167968-5.210937-3.21875-9.785156-7.960937-11.9375-4.746094-2.15625-10.199219-1.445312-14.230469 1.855469l-14.484375 11.859375-17.976562-5.210937c-5.003907-1.449219-10.300781.039062-13.816407 3.886719-3.515624 3.84375-4.519531 9.25-2.628906 14.105468l6.800782 17.4375-10.507813 15.488282c-2.925781 4.3125-3.148437 9.808593-.574219 14.339843 2.570313 4.53125 7.402344 7.167969 12.601563 6.859375l18.6875-1.078125 11.484375 14.78125c2.617187 3.367188 6.546875 5.257813 10.6875 5.257813.917968 0 1.84375-.09375 2.769531-.28125 5.105469-1.046875 9.097656-4.828125 10.417969-9.867188l4.75-18.105468 17.605468-6.355469c4.902344-1.765625 8.308594-6.082031 8.890626-11.261719zm-32.285157 3.757812c-4.207031 1.519532-7.398437 5.007813-8.535156 9.335938l-4.210937 16.058594-10.183594-13.109375c-2.742188-3.53125-7.046875-5.492188-11.515625-5.230469l-16.574219.957031 9.324219-13.738281c2.511719-3.699219 3.039062-8.398438 1.414062-12.566406l-6.03125-15.464844 15.945313 4.621094c4.296875 1.242187 8.929687.292968 12.390625-2.539063l12.847656-10.515625.53125 16.59375c.144531 4.46875 2.476563 8.582032 6.242187 11l13.972657 8.964844zm0 0"/><path d="m156.914062 413.976562c-3.613281 2.027344-4.898437 6.597657-2.871093 10.210938 13.332031 23.757812 20.09375 50.78125 20.09375 80.3125 0 4.140625 3.359375 7.5 7.5 7.5 4.144531 0 7.5-3.359375 7.5-7.5 0-32.136719-7.40625-61.625-22.011719-87.65625-2.027344-3.613281-6.597656-4.898438-10.210938-2.867188zm0 0"/><path d="m252.730469 90.183594c15.234375 0 27.625-12.394532 27.625-27.625 0-15.234375-12.390625-27.628906-27.625-27.628906s-27.625 12.394531-27.625 27.628906c0 15.230468 12.390625 27.625 27.625 27.625zm0-40.253906c6.960937 0 12.625 5.664062 12.625 12.628906 0 6.960937-5.664063 12.625-12.625 12.625-6.960938 0-12.625-5.664063-12.625-12.625 0-6.964844 5.664062-12.628906 12.625-12.628906zm0 0"/><path d="m358.410156 419.949219c-15.230468 0-27.625 12.394531-27.625 27.625 0 15.234375 12.394532 27.625 27.625 27.625 15.234375 0 27.625-12.390625 27.625-27.625 0-15.230469-12.390625-27.625-27.625-27.625zm0 40.25c-6.960937 0-12.625-5.664063-12.625-12.625 0-6.960938 5.664063-12.625 12.625-12.625 6.960938 0 12.625 5.664062 12.625 12.625 0 6.960937-5.664062 12.625-12.625 12.625zm0 0"/><path d="m28.625 427.917969c-13.035156 0-23.640625 10.605469-23.640625 23.640625 0 13.039062 10.605469 23.640625 23.640625 23.640625 13.039062 0 23.644531-10.605469 23.644531-23.640625s-10.609375-23.640625-23.644531-23.640625zm0 32.28125c-4.765625 0-8.640625-3.875-8.640625-8.640625s3.875-8.640625 8.640625-8.640625 8.644531 3.875 8.644531 8.640625-3.878906 8.640625-8.644531 8.640625zm0 0"/><path d="m96.957031 291.503906c0-13.035156-10.605469-23.640625-23.644531-23.640625-13.035156 0-23.640625 10.605469-23.640625 23.640625s10.605469 23.640625 23.644531 23.640625c13.035156 0 23.640625-10.605469 23.640625-23.640625zm-32.285156 0c0-4.765625 3.878906-8.640625 8.644531-8.640625 4.761719 0 8.640625 3.875 8.640625 8.640625s-3.875 8.640625-8.640625 8.640625c-4.769531 0-8.644531-3.875-8.644531-8.640625zm0 0"/><path d="m197.78125 47.285156c13.035156 0 23.640625-10.605468 23.640625-23.644531 0-13.035156-10.605469-23.640625-23.640625-23.640625-13.039062 0-23.644531 10.605469-23.644531 23.640625 0 13.039063 10.605469 23.644531 23.644531 23.644531zm0-32.285156c4.761719 0 8.640625 3.875 8.640625 8.640625s-3.878906 8.644531-8.640625 8.644531c-4.765625 0-8.644531-3.878906-8.644531-8.644531 0-4.761719 3.878906-8.640625 8.644531-8.640625zm0 0"/><path d="m378.070312 158.078125c0-13.039063-10.605468-23.644531-23.644531-23.644531-13.035156 0-23.640625 10.605468-23.640625 23.644531 0 13.035156 10.605469 23.640625 23.640625 23.640625 13.039063 0 23.644531-10.605469 23.644531-23.640625zm-32.285156 0c0-4.765625 3.875-8.644531 8.640625-8.644531s8.644531 3.878906 8.644531 8.644531-3.878906 8.640625-8.644531 8.640625-8.640625-3.875-8.640625-8.640625zm0 0"/><path d="m289.140625 313.238281c-10.644531 0-19.304687 8.660157-19.304687 19.300781 0 10.644532 8.660156 19.304688 19.304687 19.304688 10.640625 0 19.300781-8.660156 19.300781-19.304688 0-10.640624-8.660156-19.300781-19.300781-19.300781zm0 23.605469c-2.371094 0-4.304687-1.933594-4.304687-4.304688 0-2.371093 1.933593-4.300781 4.304687-4.300781s4.300781 1.929688 4.300781 4.300781c0 2.371094-1.929687 4.304688-4.300781 4.304688zm0 0"/><path d="m65 156.722656c0 10.640625 8.65625 19.300782 19.300781 19.300782s19.300781-8.660157 19.300781-19.300782c0-10.644531-8.65625-19.304687-19.300781-19.304687s-19.300781 8.660156-19.300781 19.304687zm23.601562 0c0 2.371094-1.929687 4.300782-4.300781 4.300782-2.371093 0-4.300781-1.929688-4.300781-4.300782 0-2.375 1.929688-4.304687 4.300781-4.304687 2.371094 0 4.300781 1.929687 4.300781 4.304687zm0 0"/><path d="m343.453125 101.574219c0 10.644531 8.660156 19.304687 19.300781 19.304687 10.644532 0 19.304688-8.660156 19.304688-19.304687 0-10.640625-8.660156-19.300781-19.304688-19.300781-10.640625 0-19.300781 8.660156-19.300781 19.300781zm23.605469 0c0 2.371093-1.929688 4.304687-4.304688 4.304687-2.371094 0-4.300781-1.933594-4.300781-4.304687 0-2.371094 1.929687-4.300781 4.300781-4.300781 2.375 0 4.304688 1.929687 4.304688 4.300781zm0 0"/></svg>