<!--?xml version="1.0" encoding="utf-8"?-->
<!-- Generator: Adobe Illustrator 18.1.1, SVG Export Plug-In . SVG Version: 6.00 Build 0)  -->

<svg version="1.1" id="_x32_" xmlns="http://www.w3.org/2000/svg" xmlns:xlink="http://www.w3.org/1999/xlink" x="0px" y="0px" viewBox="0 0 512 512" style="width: 256px; height: 256px; opacity: 1;" xml:space="preserve">
<style type="text/css">
	.st0{fill:#4B4B4B;}
</style>
<g>
	<path class="st0" d="M256,79.553c9.902,0,16.652-21.627,19.222-43.438C278.44,8.79,266.897,0,256,0
		c-10.914,0-22.441,8.79-19.24,36.115C239.332,57.926,246.065,79.553,256,79.553z" style="fill: rgb(75, 75, 75);"></path>
	<path class="st0" d="M256,432.439c-9.936,0-16.669,21.628-19.24,43.446C233.56,503.202,245.087,512,256,512
		c10.897,0,22.44-8.798,19.222-36.115C272.652,454.067,265.902,432.439,256,432.439z" style="fill: rgb(75, 75, 75);"></path>
	<path class="st0" d="M167.134,102.964c8.591-4.935,3.632-27.068-5.058-47.22c-10.88-25.268-25.26-27.101-34.714-21.661
		c-9.454,5.465-15.026,18.842,1.394,40.908C141.907,92.572,158.542,107.931,167.134,102.964z" style="fill: rgb(75, 75, 75);"></path>
	<path class="st0" d="M344.849,409.036c-8.574,4.926-3.632,27.06,5.042,47.228c10.897,25.26,25.277,27.092,34.73,21.644
		c9.438-5.448,15.044-18.842-1.392-40.9C370.093,419.428,353.441,404.077,344.849,409.036z" style="fill: rgb(75, 75, 75);"></path>
	<path class="st0" d="M74.967,128.762c-22.042-16.419-35.427-10.822-40.884-1.384c-5.456,9.453-3.615,23.825,21.645,34.722
		c20.168,8.683,42.293,13.617,47.236,5.059C107.923,158.559,92.548,141.898,74.967,128.762z" style="fill: rgb(75, 75, 75);"></path>
	<path class="st0" d="M456.239,349.908c-20.135-8.699-42.277-13.625-47.219-5.066c-4.96,8.6,10.415,25.26,27.997,38.395
		c22.058,16.42,35.426,10.83,40.867,1.385C483.357,375.176,481.516,360.797,456.239,349.908z" style="fill: rgb(75, 75, 75);"></path>
	<path class="st0" d="M79.545,255.992c0-9.902-21.645-16.644-43.438-19.223C8.79,233.56,0.016,245.103,0.016,255.992
		c0,10.921,8.774,22.448,36.091,19.248C57.9,272.677,79.545,265.918,79.545,255.992z" style="fill: rgb(75, 75, 75);"></path>
	<path class="st0" d="M475.876,236.76c-21.794,2.588-43.422,9.322-43.422,19.232c0,9.926,21.628,16.669,43.422,19.239
		c27.334,3.218,36.108-8.326,36.108-19.239C511.984,245.087,503.21,233.56,475.876,236.76z" style="fill: rgb(75, 75, 75);"></path>
	<path class="st0" d="M55.728,349.908c-25.26,10.889-27.101,25.268-21.645,34.714c5.474,9.445,18.842,15.035,40.884-1.385
		c17.581-13.135,32.939-29.796,27.98-38.395C98.021,336.283,75.896,341.209,55.728,349.908z" style="fill: rgb(75, 75, 75);"></path>
	<path class="st0" d="M456.239,162.1c25.277-10.897,27.118-25.268,21.645-34.722c-5.441-9.454-18.809-15.035-40.867,1.384
		c-17.582,13.136-32.956,29.796-27.997,38.396C413.962,175.716,436.104,170.783,456.239,162.1z" style="fill: rgb(75, 75, 75);"></path>
	<path class="st0" d="M128.755,437.008c-16.42,22.058-10.848,35.452-1.394,40.9c9.47,5.448,23.834,3.616,34.714-21.644
		c8.69-20.168,13.65-42.302,5.058-47.228C158.559,404.077,141.907,419.428,128.755,437.008z" style="fill: rgb(75, 75, 75);"></path>
	<path class="st0" d="M383.229,74.992c16.436-22.067,10.864-35.443,1.392-40.908c-9.453-5.44-23.833-3.608-34.73,21.661
		c-8.674,20.152-13.634,42.285-5.042,47.22C353.424,107.931,370.093,92.572,383.229,74.992z" style="fill: rgb(75, 75, 75);"></path>
	<path class="st0" d="M235.135,176.123c7.48-1.99,8.177-19.563,5.706-36.463c-3.068-21.156-13.5-25.451-21.677-23.229
		c-8.21,2.148-15.11,11.08-7.215,30.949C218.284,163.253,227.722,178.155,235.135,176.123z" style="fill: rgb(75, 75, 75);"></path>
	<path class="st0" d="M276.848,335.852c-7.414,2.007-8.16,19.638-5.705,36.514c3.084,21.155,13.517,25.442,21.71,23.219
		c8.193-2.197,15.092-11.096,7.198-30.94C293.732,348.772,284.295,333.87,276.848,335.852z" style="fill: rgb(75, 75, 75);"></path>
	<path class="st0" d="M153.815,154.139c-5.954,6.02-7.497,17.133,9.305,30.426c13.368,10.548,29.008,18.742,34.415,13.294
		c5.457-5.466-2.704-21.073-13.252-34.441C171.032,146.626,159.82,148.152,153.815,154.139z" style="fill: rgb(75, 75, 75);"></path>
	<path class="st0" d="M358.135,357.869c6.004-5.996,7.53-17.15-9.254-30.434c-13.402-10.548-28.976-18.709-34.432-13.277
		c-5.424,5.44,2.736,21.063,13.302,34.44C341.002,365.374,352.147,363.857,358.135,357.869z" style="fill: rgb(75, 75, 75);"></path>
	<path class="st0" d="M139.469,240.6c16.901,2.463,34.515,1.749,36.472-5.714c2.024-7.439-12.888-16.876-28.742-23.187
		c-19.853-7.894-28.727-0.987-30.95,7.198C114.043,227.058,118.322,237.507,139.469,240.6z" style="fill: rgb(75, 75, 75);"></path>
	<path class="st0" d="M372.515,271.416c-16.885-2.438-34.466-1.733-36.489,5.689c-1.99,7.448,12.904,16.859,28.76,23.187
		c19.869,7.911,28.776,0.987,30.966-7.19C397.974,284.908,393.694,274.485,372.515,271.416z" style="fill: rgb(75, 75, 75);"></path>
	<path class="st0" d="M147.38,300.068c15.856-6.327,30.767-15.781,28.76-23.245c-1.991-7.397-19.604-8.119-36.489-5.656
		c-21.164,3.06-25.442,13.509-23.236,21.669C118.604,301.039,127.511,307.938,147.38,300.068z" style="fill: rgb(75, 75, 75);"></path>
	<path class="st0" d="M364.603,211.948c-15.856,6.369-30.75,15.765-28.744,23.196c1.991,7.446,19.588,8.168,36.489,5.713
		c21.164-3.084,25.442-13.534,23.237-21.686C393.38,210.954,384.489,204.054,364.603,211.948z" style="fill: rgb(75, 75, 75);"></path>
	<path class="st0" d="M163.368,327.75c-16.751,13.227-15.225,24.447-9.221,30.41c6.004,5.979,17.166,7.514,30.418-9.272
		c10.532-13.368,18.725-28.967,13.285-34.432C192.378,309.008,176.77,317.176,163.368,327.75z" style="fill: rgb(75, 75, 75);"></path>
	<path class="st0" d="M348.598,184.283c16.785-13.26,15.243-24.464,9.288-30.426c-5.988-6.012-17.182-7.521-30.418,9.271
		c-10.582,13.394-18.742,29.008-13.302,34.424C319.606,203,335.214,194.823,348.598,184.283z" style="fill: rgb(75, 75, 75);"></path>
	<path class="st0" d="M234.87,336.035c-7.414-1.991-16.851,12.886-23.17,28.759c-7.912,19.87-1.028,28.801,7.198,30.957
		c8.194,2.222,18.626-2.065,21.694-23.22C243.063,355.638,242.316,338.033,234.87,336.035z" style="fill: rgb(75, 75, 75);"></path>
	<path class="st0" d="M293.102,116.249c-8.177-2.222-18.626,2.065-21.677,23.22c-2.472,16.918-1.742,34.498,5.688,36.496
		c7.43,2.024,16.868-12.895,23.186-28.734C308.195,127.353,301.328,118.464,293.102,116.249z" style="fill: rgb(75, 75, 75);"></path>
	<path class="st0" d="M214.536,255.992c0,22.904,18.56,41.464,41.465,41.464c22.888,0,41.464-18.56,41.464-41.464
		c0-22.888-18.576-41.448-41.464-41.448C233.095,214.544,214.536,233.104,214.536,255.992z" style="fill: rgb(75, 75, 75);"></path>
</g>
</svg>
